<svg id="visual" viewBox="0 0 900 600" width="900" height="600" xmlns="http://www.w3.org/2000/svg" xmlns:xlink="http://www.w3.org/1999/xlink" version="1.1"><rect x="0" y="0" width="900" height="600" fill="#ffffff"></rect><path d="M714 600L765 554L711 508L752 462L621 415L687 369L696 323L704 277L760 231L689 185L646 138L661 92L748 46L614 0L900 0L900 46L900 92L900 138L900 185L900 231L900 277L900 323L900 369L900 415L900 462L900 508L900 554L900 600Z" fill="#2274A5" stroke-linecap="square" stroke-linejoin="bevel"></path></svg>