    <svg width="30" height="30" xmlns="http://www.w3.org/2000/svg"><g fill="#000" fill-rule="nonzero"><path d="M6.9 11.848c-1.805 3.132-.657 7.886 1.339 10.768.996 1.44 2.005 2.734 3.386 2.734.027 0 .053 0 .08-.002.648-.025 1.118-.225 1.571-.418.51-.217 1.036-.442 1.862-.442.786 0 1.287.217 1.772.427.478.207.97.42 1.698.407 1.556-.029 2.512-1.424 3.355-2.656a11.773 11.773 0 001.47-3.01l.005-.02a.175.175 0 00-.092-.214l-.013-.005c-.274-.112-2.678-1.179-2.704-4.086-.023-2.361 1.804-3.612 2.17-3.838l.017-.011a.175.175 0 00.05-.246c-1.261-1.845-3.194-2.123-3.972-2.157a3.503 3.503 0 00-.346-.017c-.914 0-1.79.346-2.493.623-.486.191-.905.357-1.194.357-.325 0-.747-.168-1.235-.361-.653-.26-1.394-.553-2.177-.553h-.056c-1.822.027-3.543 1.07-4.493 2.72z"></path><path d="M18.896 4c-1.104.045-2.427.724-3.218 1.65-.673.78-1.33 2.078-1.156 3.387.01.082.077.146.16.152.074.006.15.009.226.009 1.079 0 2.242-.597 3.037-1.558.837-1.015 1.26-2.317 1.132-3.484A.176.176 0 0018.896 4z"></path></g></svg>