<svg id="visual" viewBox="0 0 900 600" width="900" height="600" xmlns="http://www.w3.org/2000/svg" xmlns:xlink="http://www.w3.org/1999/xlink" version="1.1"><rect x="0" y="0" width="900" height="600" fill="#ffffff"></rect><path d="M255 600L306.3 550C357.7 500 460.3 400 463.2 300C466 200 369 100 320.5 50L272 0L900 0L900 50C900 100 900 200 900 300C900 400 900 500 900 550L900 600Z" fill="#cde9ff"></path><path d="M571 600L558.5 550C546 500 521 400 507 300C493 200 490 100 488.5 50L487 0L900 0L900 50C900 100 900 200 900 300C900 400 900 500 900 550L900 600Z" fill="#aed9fd"></path><path d="M509 600L540.2 550C571.3 500 633.7 400 659.8 300C686 200 676 100 671 50L666 0L900 0L900 50C900 100 900 200 900 300C900 400 900 500 900 550L900 600Z" fill="#90c8fb"></path><path d="M569 600L575.8 550C582.7 500 596.3 400 617 300C637.7 200 665.3 100 679.2 50L693 0L900 0L900 50C900 100 900 200 900 300C900 400 900 500 900 550L900 600Z" fill="#72b8f9"></path><path d="M801 600L776.7 550C752.3 500 703.7 400 681.5 300C659.3 200 663.7 100 665.8 50L668 0L900 0L900 50C900 100 900 200 900 300C900 400 900 500 900 550L900 600Z" fill="#50a7f6"></path><path d="M818 600L813.8 550C809.7 500 801.3 400 795.7 300C790 200 787 100 785.5 50L784 0L900 0L900 50C900 100 900 200 900 300C900 400 900 500 900 550L900 600Z" fill="#2196f3"></path></svg>