<svg id="visual" viewBox="0 0 900 600" width="900" height="600" xmlns="http://www.w3.org/2000/svg" xmlns:xlink="http://www.w3.org/1999/xlink" version="1.1"><rect x="0" y="0" width="900" height="600" fill="#ffffff"></rect><path d="M419 600L387.5 550C356 500 293 400 286.8 300C280.7 200 331.3 100 356.7 50L382 0L900 0L900 50C900 100 900 200 900 300C900 400 900 500 900 550L900 600Z" fill="#ffffff"></path><path d="M333 600L372 550C411 500 489 400 512.8 300C536.7 200 506.3 100 491.2 50L476 0L900 0L900 50C900 100 900 200 900 300C900 400 900 500 900 550L900 600Z" fill="#ffdcc4"></path><path d="M635 600L640.8 550C646.7 500 658.3 400 627.5 300C596.7 200 523.3 100 486.7 50L450 0L900 0L900 50C900 100 900 200 900 300C900 400 900 500 900 550L900 600Z" fill="#ffba8a"></path><path d="M607 600L630.3 550C653.7 500 700.3 400 730.3 300C760.3 200 773.7 100 780.3 50L787 0L900 0L900 50C900 100 900 200 900 300C900 400 900 500 900 550L900 600Z" fill="#ff984f"></path><path d="M834 600L827.7 550C821.3 500 808.7 400 795.5 300C782.3 200 768.7 100 761.8 50L755 0L900 0L900 50C900 100 900 200 900 300C900 400 900 500 900 550L900 600Z" fill="#ff7300"></path></svg>