<svg id="visual" viewBox="0 0 900 600" width="900" height="600" xmlns="http://www.w3.org/2000/svg" xmlns:xlink="http://www.w3.org/1999/xlink" version="1.1"><rect x="0" y="0" width="900" height="600" fill="#ffffff"></rect><defs><linearGradient id="grad1_0" x1="33.3%" y1="100%" x2="100%" y2="0%"><stop offset="20%" stop-color="#ffffff" stop-opacity="1"></stop><stop offset="80%" stop-color="#ffffff" stop-opacity="1"></stop></linearGradient></defs><defs><linearGradient id="grad2_0" x1="0%" y1="100%" x2="66.7%" y2="0%"><stop offset="20%" stop-color="#ffffff" stop-opacity="1"></stop><stop offset="80%" stop-color="#ffffff" stop-opacity="1"></stop></linearGradient></defs><g transform="translate(900, 600)"><path d="M-270.4 0C-268.1 -37.1 -265.8 -74.1 -249.8 -103.5C-233.9 -132.9 -204.2 -154.6 -178.2 -178.2C-152.2 -201.8 -129.7 -227.3 -100.6 -243C-71.5 -258.7 -35.8 -264.5 0 -270.4L0 0Z" fill="#FF7300"></path></g><g transform="translate(0, 0)"><path d="M270.4 0C271.2 39.9 271.9 79.8 249.8 103.5C227.7 127.2 182.7 134.7 155.6 155.6C128.4 176.4 119 210.5 96.1 231.9C73.1 253.3 36.5 261.8 0 270.4L0 0Z" fill="#FF7300"></path></g></svg>