<svg width="30" height="30" xmlns="http://www.w3.org/2000/svg"><g fill-rule="nonzero" fill="none"><path d="M9.655 16.83l-.652 2.437-2.386.05A9.333 9.333 0 015.5 14.876c0-1.555.378-3.02 1.048-4.311l2.124.389.93 2.11a5.573 5.573 0 00-.3 1.812c0 .688.125 1.348.353 1.956z" fill="#FBBB00"></path><path d="M24.086 13.124a9.393 9.393 0 01-.041 3.709 9.373 9.373 0 01-3.3 5.353h-.001l-2.675-.137-.379-2.363a5.587 5.587 0 002.404-2.854h-5.013v-3.708h9.006z" fill="#518EF8"></path><path d="M20.744 22.185v.001a9.335 9.335 0 01-5.869 2.064 9.374 9.374 0 01-8.258-4.932l3.038-2.487a5.574 5.574 0 008.035 2.855l3.054 2.5z" fill="#28B446"></path><path d="M20.859 7.658l-3.037 2.487a5.576 5.576 0 00-8.22 2.92L6.55 10.563A9.373 9.373 0 0114.874 5.5c2.275 0 4.36.81 5.984 2.158z" fill="#F14336"></path></g></svg>