<svg id="visual" viewBox="0 0 900 600" width="900" height="600" xmlns="http://www.w3.org/2000/svg" xmlns:xlink="http://www.w3.org/1999/xlink" version="1.1"><rect x="0" y="0" width="900" height="600" fill="#ffffff"></rect><defs><linearGradient id="grad1_0" x1="33.3%" y1="0%" x2="100%" y2="100%"><stop offset="20%" stop-color="#ffffff" stop-opacity="1"></stop><stop offset="80%" stop-color="#ffffff" stop-opacity="1"></stop></linearGradient></defs><defs><linearGradient id="grad2_0" x1="0%" y1="0%" x2="66.7%" y2="100%"><stop offset="20%" stop-color="#ffffff" stop-opacity="1"></stop><stop offset="80%" stop-color="#ffffff" stop-opacity="1"></stop></linearGradient></defs><g transform="translate(900, 0)"><path d="M0 486.7C-64 479.9 -128 473 -186.3 449.7C-244.5 426.4 -297 386.7 -340.1 340.1C-383.2 293.5 -416.9 240 -439.8 182.2C-462.6 124.3 -474.7 62.2 -486.7 0L0 0Z" fill="#fff1dd"></path></g><g transform="translate(0, 600)"><path d="M0 -486.7C60.7 -460.8 121.4 -434.8 165.7 -400C210 -365.3 237.8 -321.7 288.5 -288.5C339.2 -255.3 412.8 -232.6 449.7 -186.3C486.6 -139.9 486.7 -70 486.7 0L0 0Z" fill="#fff1dd"></path></g></svg>