<svg id="visual" viewBox="0 0 450 900" width="450" height="900" xmlns="http://www.w3.org/2000/svg" xmlns:xlink="http://www.w3.org/1999/xlink" version="1.1"><rect x="0" y="0" width="450" height="900" fill="#ff9a47"></rect><path d="M0 522L30 415L60 453L90 410L120 499L150 409L180 415L210 473L240 369L270 539L300 465L330 523L360 513L390 476L420 368L450 506L450 901L420 901L390 901L360 901L330 901L300 901L270 901L240 901L210 901L180 901L150 901L120 901L90 901L60 901L30 901L0 901Z" fill="#FF7300" stroke-linecap="square" stroke-linejoin="bevel"></path></svg>