<svg id="visual" viewBox="0 0 900 600" width="900" height="600" xmlns="http://www.w3.org/2000/svg" xmlns:xlink="http://www.w3.org/1999/xlink" version="1.1"><rect x="0" y="0" width="900" height="600" fill="#ffffff"></rect><path d="M0 367L50 358.3C100 349.7 200 332.3 300 325.3C400 318.3 500 321.7 600 303.3C700 285 800 245 850 225L900 205L900 601L850 601C800 601 700 601 600 601C500 601 400 601 300 601C200 601 100 601 50 601L0 601Z" fill="#2769e5"></path><path d="M0 422L50 435.7C100 449.3 200 476.7 300 463C400 449.3 500 394.7 600 399.5C700 404.3 800 468.7 850 500.8L900 533L900 601L850 601C800 601 700 601 600 601C500 601 400 601 300 601C200 601 100 601 50 601L0 601Z" fill="#2196f3"></path></svg>