<svg id="visual" viewBox="0 0 900 600" width="900" height="600" xmlns="http://www.w3.org/2000/svg" xmlns:xlink="http://www.w3.org/1999/xlink" version="1.1"><rect x="0" y="0" width="900" height="600" fill="#ffffff"></rect><path d="M94 0L121 9.2C148 18.3 202 36.7 210.2 54.8C218.3 73 180.7 91 171.2 109.2C161.7 127.3 180.3 145.7 167 163.8C153.7 182 108.3 200 84.5 218.2C60.7 236.3 58.3 254.7 86.2 272.8C114 291 172 309 172.7 327.2C173.3 345.3 116.7 363.7 121.2 381.8C125.7 400 191.3 418 195.2 436.2C199 454.3 141 472.7 117.5 490.8C94 509 105 527 139.8 545.2C174.7 563.3 233.3 581.7 262.7 590.8L292 600L0 600L0 590.8C0 581.7 0 563.3 0 545.2C0 527 0 509 0 490.8C0 472.7 0 454.3 0 436.2C0 418 0 400 0 381.8C0 363.7 0 345.3 0 327.2C0 309 0 291 0 272.8C0 254.7 0 236.3 0 218.2C0 200 0 182 0 163.8C0 145.7 0 127.3 0 109.2C0 91 0 73 0 54.8C0 36.7 0 18.3 0 9.2L0 0Z" fill="#FF7300" stroke-linecap="round" stroke-linejoin="miter"></path></svg>